<svg xmlns="http://www.w3.org/2000/svg" version="1.1" xmlns:xlink="http://www.w3.org/1999/xlink" viewBox="0 0 7.7065718852179055 7.294840001469978"><g transform="matrix(0.8537011291153594,0,0,0.8537011291153594,3.85563993157377,5.8682049706132435)"><rect width="8.956689542441897" height="8.956689542441897" x="-4.481102163573534" y="-7.079705943343942" fill="#4e888f"></rect><g transform="matrix(1,0,0,1,0,0)"><path d=" M -2.8445239696289577 -1.5077846905201189 Q -2.8445239696289577 -1.5077846905201189 -2.8478147586209426 -1.488338078789274 Q -2.851105547612927 -1.468891467058429 -2.8528153622462202 -1.4382756780939132 Q -2.8545251768795126 -1.4076598891293972 -2.852118373914903 -1.3732621086851657 Q -2.8497115709502934 -1.3388643282409345 -2.8383163870371044 -1.3089619908141614 Q -2.8294138996049254 -1.2856007896994948 -2.8162407232916373 -1.2734984169644057 Q -2.8030675469783493 -1.2613960442293164 -2.785313034131203 -1.2681619346777724 Q -2.768492969328643 -1.2745717256289413 -2.7639116327947844 -1.2934399888124866 Q -2.7593302962609254 -1.3123082519960318 -2.761425199029617 -1.3430793647869228 Q -2.763520101798308 -1.3738504775778138 -2.765972356607455 -1.4167921408706 Q -2.770785962536675 -1.4855877017590626 -2.7635830892472053 -1.5396997948286884 Q -2.756380215957736 -1.5938118878983143 -2.7277936570814427 -1.6325295666976976 Q -2.699207098205149 -1.6712472454970806 -2.636599079217843 -1.6951059118153204 Q -2.5767944043642967 -1.7178962796416988 -2.5279556259871723 -1.711894302748197 Q -2.479116847610048 -1.7058923258546954 -2.4409333180565955 -1.6787074390452819 Q -2.402749788503143 -1.6515225522358683 -2.374910860120613 -1.6107641903145111 Q -2.3470719317380824 -1.5700058283931537 -2.3292669568737243 -1.5232834261638208 Q -2.311105882512079 -1.4756265758899012 -2.3011540648808015 -1.4200256646938265 Q -2.291202247249524 -1.3644247534977516 -2.289972362215445 -1.3092456144794329 Q -2.2887424771813656 -1.2540664754611142 -2.296791399912684 -1.2049827221117089 L -2.4864943733091245 -1.2225833438208835 Q -2.4864943733091245 -1.2225833438208835 -2.482402986719828 -1.2455454986800627 Q -2.478311600130531 -1.2685076535392419 -2.4760461628722075 -1.304685931469909 Q -2.473780725613884 -1.3408642094005763 -2.476989378718974 -1.3829825491737817 Q -2.480198031824064 -1.4251008889469874 -2.494798111212838 -1.4634132587750406 Q -2.506193295126027 -1.4933155962018136 -2.518587347221103 -1.5019693510322059 Q -2.5309813993161794 -1.5106231058625983 -2.5440636719403926 -1.505637712900578 Q -2.5636870808767123 -1.4981596234575476 -2.5665990444491413 -1.4735066222578388 Q -2.5695110080215704 -1.44885362105813 -2.566681180336036 -1.4119416707537884 Q -2.563851352650502 -1.3750297204494468 -2.561621346891367 -1.3298630615702 Q -2.559166586995883 -1.2644491933627968 -2.569685480285943 -1.2176346349012208 Q -2.580204373576003 -1.1708200764396446 -2.60754583675496 -1.1400679319415168 Q -2.634887299933917 -1.1093157874433888 -2.683478598252423 -1.0907986135844565 Q -2.7572999937747693 -1.0626667532987706 -2.820001421537487 -1.0783680575922576 Q -2.882702849300205 -1.0940693618857444 -2.9299441901122116 -1.1408107324078403 Q -2.977185530924218 -1.1875521029299363 -3.0021124957343193 -1.2529634660510025 Q -3.0206296695932515 -1.3015547643695087 -3.0262198946543455 -1.3513267382480512 Q -3.0318101197154395 -1.4010987121265936 -3.0301242835475843 -1.4472225449726956 Q -3.028438447379729 -1.4933463778187974 -3.024882462579531 -1.5289463072021652 L -2.8445239696289577 -1.5077846905201189 M -2.8103871307808275 -1.786718875742275 Q -2.8750563538427416 -1.780169708728954 -2.9397068312765264 -1.7982477552933287 Q -3.004357308710311 -1.8163258018577033 -3.059833327568522 -1.8579480474920202 Q -3.115309346426733 -1.8995702931263374 -3.152455193761926 -1.963653723322844 Q -3.1896010410971187 -2.0277371535193507 -3.198165336422231 -2.112304599061854 Q -3.2084424908123648 -2.213785533712858 -3.173816255625919 -2.293680926801652 Q -3.1391900204394734 -2.3735763198904465 -3.0732742291342254 -2.4174409805708046 L -2.9528009440642604 -2.279879403142909 Q -2.9863130000026272 -2.2634190839848918 -3.0027477791772426 -2.2371293895499686 Q -3.019182558351858 -2.2108396951150455 -3.0237728339377767 -2.181729054963285 Q -3.0283631095236956 -2.1526184148115237 -3.0256426863027777 -2.1257558144627287 Q -3.0214109168480165 -2.0839695472534916 -3.001921812626049 -2.055287238827821 Q -2.982432708404082 -2.0266049304021503 -2.9536053579512904 -2.009924586704494 Q -2.924778007498499 -1.9932442430068376 -2.8909887544574264 -1.9871175490430129 Q -2.857199501416354 -1.9809908550791884 -2.8243674343233818 -1.9843158167936437 Q -2.787555722734292 -1.9880438041704571 -2.754837065088776 -2.002413544664826 Q -2.7221184074432596 -2.0167832851591943 -2.6978691473838596 -2.040346463776936 Q -2.6736198873244597 -2.0639096423946777 -2.6617692911394992 -2.095765777911419 Q -2.649918694954539 -2.1276219134281606 -2.653747438746942 -2.1654285361412797 Q -2.65646786196786 -2.1922911364900752 -2.667745786158618 -2.2192922184303883 Q -2.6790237103493753 -2.2462933003707017 -2.7002444192644948 -2.2672618843271777 Q -2.721465128179614 -2.2882304682836536 -2.754511361135631 -2.2969451964731413 L -2.6760150744315716 -2.4647079246748316 Q -2.62216381125466 -2.44905412468087 -2.580415035301682 -2.40403146698024 Q -2.5386662593487044 -2.3590088092796107 -2.5130185946635777 -2.2992890696937804 Q -2.4873709299784514 -2.239569330107951 -2.4812247886274887 -2.1788797515421545 Q -2.473265031795914 -2.100281772743828 -2.498005186981726 -2.0319412670288277 Q -2.5227453421675383 -1.963600761313828 -2.5701922464385807 -1.9110527711039775 Q -2.617639150709623 -1.8585047808941273 -2.6801861625282237 -1.826037546448246 Q -2.7427331743468244 -1.7935703120023645 -2.8103871307808275 -1.786718875742275 M -2.446979175578147 -2.8601511335627228 Q -2.4628205736713955 -2.7766403551778267 -2.5016985393003983 -2.721927433591148 Q -2.540576504929401 -2.667214512004469 -2.595893233958224 -2.6385211418721237 Q -2.6512099629870476 -2.609827771739779 -2.7169520758472756 -2.603977592539698 Q -2.782694188707503 -2.5981274133396175 -2.8514677709068295 -2.611173270592881 L -3.21007287808903 -2.679198097699183 L -3.1737308471692254 -2.8707816481115915 L -2.815125739987024 -2.8027568210052896 Q -2.780738948887361 -2.796233892378658 -2.7479950112994858 -2.797147430139956 Q -2.7152510737116105 -2.798060967901254 -2.687893539229009 -2.8081389293535155 Q -2.6605360047464073 -2.8182168908057768 -2.64191036778438 -2.8386028086845174 Q -2.6232847308223524 -2.858988726563258 -2.616948171585053 -2.8923930379172167 Q -2.610425242958421 -2.92677982901688 -2.620198333927163 -2.95306169905911 Q -2.6299714248959045 -2.9793435691013412 -2.6523223022660543 -2.998341944842033 Q -2.6746731796362044 -3.017340320582725 -2.7048079457734273 -3.0301814992612925 Q -2.7349427119106497 -3.04302267793986 -2.7683470232646084 -3.049359237177159 L -3.126952130446809 -3.117384064283461 L -3.090610099527004 -3.30896761469587 L -2.732004992344803 -3.2409427875895678 Q -2.6593014911626582 -3.2271514527789753 -2.6000569905295405 -3.196065456820465 Q -2.540812489896423 -3.1649794608619546 -2.5009218682865604 -3.1177170200915207 Q -2.4610312466766975 -3.070454579321087 -2.4462708814701304 -3.006075765888648 Q -2.4315105162635633 -2.9416969524562093 -2.446979175578147 -2.8601511335627228 M -2.3445910560971948 -3.2847967558151274 L -2.982469380248989 -3.5965839325515967 L -2.896837690863621 -3.771775866649625 L -2.4116907964383127 -3.534641957582451 L -2.270288724735294 -3.8239332538879127 L -2.117557295008808 -3.749279986218617 L -2.3445910560971948 -3.2847967558151274 M -2.073961104261934 -3.8085863263013935 L -2.6180142696992554 -4.264772859616035 L -2.4214042990030857 -4.499252111198881 Q -2.387993454309619 -4.539098258526685 -2.3436310262250726 -4.55932138821631 Q -2.299268598140526 -4.579544517905937 -2.251505420057296 -4.581255897288084 Q -2.2037422419740658 -4.582967276670232 -2.158782236886392 -4.568106323049539 Q -2.1138222317987183 -4.553245369428848 -2.079339988918888 -4.524332138444117 Q -2.0310648488871257 -4.483853615065494 -2.007107842504438 -4.425267679507718 Q -1.9831508361217507 -4.366681743949942 -1.989680280665404 -4.303643133924409 Q -1.9962097252090572 -4.240604523898874 -2.041185862296416 -4.186965479419138 L -2.1157177466126114 -4.098077919995576 L -1.9486704366614336 -3.9580093787806576 L -2.073961104261934 -3.8085863263013935 M -2.2459839974919698 -4.207305681493448 L -2.1798048243491417 -4.2862317040850595 Q -2.17209462941988 -4.295426968853014 -2.1703908551826974 -4.308353575265708 Q -2.1686870809455145 -4.321280181678403 -2.1768948342026615 -4.3379499983081615 Q -2.1851025874598093 -4.35461981493792 -2.2065582052517034 -4.372610269772864 Q -2.2295463671715905 -4.391885757096018 -2.2476512443024217 -4.3959739625797845 Q -2.265756121433253 -4.400062168063552 -2.2787683429005425 -4.394660122850282 Q -2.291780564367832 -4.389258077637012 -2.2994907592970937 -4.380062812869058 L -2.3624573512193963 -4.3049681505974275 L -2.2459839974919698 -4.207305681493448 M -1.5240145435360066 -5.0401560092455 L -1.689800286508281 -4.921281758765714 L -1.3751331528853175 -4.4824371450155756 L -1.5336048189617564 -4.368807346762839 L -1.8482719525847198 -4.8076519605129775 L -2.0148703707676425 -4.688194993119074 L -2.1139322461674643 -4.826349778929303 L -1.6230764189358284 -5.1783107950557286 L -1.5240145435360066 -5.0401560092455 M -0.8476313104451328 -4.738317681379273 Q -0.9275626283504002 -4.709404286249557 -0.9944495160663219 -4.714984989760555 Q -1.061336403782244 -4.720565693271552 -1.1142083108494072 -4.753547679917011 Q -1.1670802179165707 -4.78652966656247 -1.2056068568934153 -4.840120226264229 Q -1.24413349587026 -4.89371078596599 -1.2679445271535557 -4.959536577182092 L -1.3921020474164552 -5.302771059951769 L -1.2087302004573126 -5.369101789955236 L -1.084572680194413 -5.025867307185559 Q -1.0726671645527652 -4.992954411577507 -1.0551995425587912 -4.965243724435618 Q -1.0377319205648172 -4.93753303729373 -1.0151224541316182 -4.919126189991543 Q -0.9925129876984191 -4.900719342689355 -0.9654820441671879 -4.895077703582555 Q -0.9384511006359564 -4.889436064475754 -0.9064785734738495 -4.90100142252764 Q -0.8735656778657983 -4.9129069381692885 -0.8559291202146744 -4.934706062789754 Q -0.8382925625635506 -4.95650518741022 -0.8333312386362728 -4.985416867833339 Q -0.8283699147089951 -5.01432854825646 -0.8326723784597486 -5.046801441655007 Q -0.8369748422105021 -5.079274335053555 -0.8485402002623886 -5.111246862215662 L -0.972697720525288 -5.454481344985339 L -0.7893258735661455 -5.520812074988806 L -0.6651683533032461 -5.177577592219129 Q -0.6399966916609049 -5.107990327219249 -0.6365637906120916 -5.041173673678466 Q -0.6331308895632783 -4.974357020137683 -0.653477694646561 -4.915953188731662 Q -0.6738244997298439 -4.857549357325642 -0.7217026145807991 -4.812050059327554 Q -0.7695807294317543 -4.766550761329467 -0.8476313104451328 -4.738317681379273 M -0.4303855964866578 -4.871115450593854 L -0.47430229008884733 -5.579755926451007 L -0.14892652230091535 -5.599920492809195 Q -0.09702609308320842 -5.603136926706821 -0.051811400824953946 -5.58489873589766 Q -0.006596708566699472 -5.566660545088499 0.027537851785845002 -5.533207865232642 Q 0.06167241213838959 -5.4997551853767845 0.08186050065387762 -5.456921891292733 Q 0.10204858916936566 -5.414088597208682 0.10483204158077208 -5.36917476423182 Q 0.10736807600005338 -5.328253271964013 0.09774152479807796 -5.289583781251621 Q 0.08811497359610243 -5.25091429053923 0.06710743120702412 -5.218051954000708 Q 0.04609988881794591 -5.185189617462186 0.015583816600229672 -5.160254314448123 L 0.18144061717592597 -4.909032257887013 L -0.03214961075848338 -4.895795395308324 L -0.1703945384872459 -5.105646151697882 L -0.2492432674910699 -5.100759646353413 L -0.23575898692025676 -4.883177077709949 L -0.4303855964866578 -4.871115450593854 M -0.2597585321563829 -5.270434126488223 L -0.13699405535296072 -5.278042229746068 Q -0.12501703322579755 -5.2787844837224425 -0.11459478675817925 -5.288447649796159 Q -0.104172540290561 -5.298110815869875 -0.09773842792761533 -5.31554217261859 Q -0.09130431556466972 -5.332973529367306 -0.0927888235174198 -5.356927573621633 Q -0.09433518596820112 -5.381879703053222 -0.10383950919245727 -5.397822345244806 Q -0.11334383241671353 -5.41376498743639 -0.12637658761478976 -5.421974572806372 Q -0.139409342812866 -5.430184158176353 -0.1513863649400291 -5.429441904199978 L -0.26916041585713335 -5.42214307343229 L -0.2597585321563829 -5.270434126488223 M 0.7776822471299047 -4.961168479269667 L 0.7448992950568346 -4.794359372643636 L 0.24839689533464637 -4.891936865284657 L 0.38531393046335094 -5.5886101929580825 L 0.8729852598347493 -5.492768268367989 L 0.8402023077616791 -5.325959161741958 L 0.5438708359907288 -5.384197111895294 L 0.5245867465359817 -5.286074107997629 L 0.7777440965919591 -5.236321157204381 L 0.7472752352534586 -5.081286811046069 L 0.4941178851974813 -5.131039761839316 L 0.4725197050081645 -5.021141997473931 L 0.7776822471299047 -4.961168479269667 M 1.4019236258852952 -4.875639461927658 L 1.217381775726843 -4.579421120935587 L 1.0518729605593529 -4.682531896812086 L 1.427301939391734 -5.285153736652691 L 1.5563139389069058 -5.204780208789984 L 1.6073243093239238 -4.747676345198875 L 1.7982114379978529 -5.054079844047408 L 1.9637202531653428 -4.9509690681709095 L 1.5882912743329616 -4.348347228330304 L 1.4567329853536748 -4.43030707582188 L 1.4019236258852952 -4.875639461927658 M 2.1472133655700674 -4.00019423159283 L 2.0218872637332383 -3.8853318435000133 L 1.680002743880503 -4.258361299555516 L 2.203423522140201 -4.738080685119631 L 2.5392270920350817 -4.371686140337843 L 2.4139009901982527 -4.256823752245026 L 2.2098513360568965 -4.479461886096335 L 2.1361300996822914 -4.411895775453502 L 2.3104506651408006 -4.221694985607019 L 2.1939711116689242 -4.114940530791343 L 2.0196505462104146 -4.3051413206378255 L 1.9370827614708568 -4.229467276717852 L 2.1472133655700674 -4.00019423159283 M 2.7699499149599123 -4.017650354638507 L 2.4062128801308447 -3.668020022010233 L 2.8989918512756994 -3.773674579874142 L 2.9948382170174983 -3.592460689197711 L 2.2526712804955156 -3.4770776820711182 L 2.1619678904764474 -3.6485679005649114 L 2.6736360059705926 -4.19974821551336 L 2.7699499149599123 -4.017650354638507 M 2.3666221007415253 -3.1972452358927366 L 3.047535112529494 -3.398385660417091 L 3.1027779051805493 -3.2113743402781414 L 2.42186489339258 -3.0102339157537874 L 2.3666221007415253 -3.1972452358927366 M 2.458327291245797 -2.889272106201111 L 3.164389514407349 -2.9639456425052564 L 3.1848984433922904 -2.770027144594689 L 2.6478933722553353 -2.713233187405621 L 2.681759398579187 -2.3930190523943256 L 2.5127022465545896 -2.3751394732792486 L 2.458327291245797 -2.889272106201111 M 2.5054523579412127 -2.3019789874985577 L 3.209445869435001 -2.209820776932999 L 3.184134811603615 -2.016470446311466 L 2.648703126805523 -2.086562606459919 L 2.606907431309593 -1.7672866758951304 L 2.4383456046138976 -1.7893527263122362 L 2.5054523579412127 -2.3019789874985577 M 2.391278739721753 -1.1864247548175615 L 2.232666570143625 -1.2475981122676731 L 2.4147472693774867 -1.7197025699531603 L 3.077186330556728 -1.4642138417791641 L 2.8983442208349306 -1.0005064989536956 L 2.7397320512568024 -1.0616798564038072 L 2.8484047215505304 -1.3434497105955407 L 2.755103445328102 -1.3794340385073713 L 2.6622638793155797 -1.1387167458535061 L 2.514847862884143 -1.1955719839541983 L 2.607687428896665 -1.4362892766080633 L 2.5031899995275455 -1.4765917238693134 L 2.391278739721753 -1.1864247548175615" fill="#ffffff" fill-rule="nonzero"></path></g><g transform="matrix(1,0,0,1,0,0)"><path d=" M -1.4620118408203124 0.35749999999999993 L -1.4620118408203124 0.0024999999999999467 L -1.3415118408203124 0.0024999999999999467 Q -1.2850118408203124 0.0024999999999999467 -1.2472618408203124 0.02624999999999994 Q -1.2095118408203125 0.04999999999999993 -1.1905118408203124 0.09024999999999994 Q -1.1715118408203125 0.13049999999999992 -1.1715118408203125 0.17949999999999994 Q -1.1715118408203125 0.23349999999999993 -1.1922618408203123 0.2734999999999999 Q -1.2130118408203123 0.31349999999999995 -1.2512618408203124 0.3354999999999999 Q -1.2895118408203123 0.35749999999999993 -1.3415118408203124 0.35749999999999993 L -1.4620118408203124 0.35749999999999993 M -1.2065118408203124 0.17949999999999994 Q -1.2065118408203124 0.13699999999999993 -1.2222618408203125 0.10399999999999993 Q -1.2380118408203125 0.0709999999999999 -1.2680118408203125 0.05224999999999991 Q -1.2980118408203125 0.03349999999999992 -1.3415118408203124 0.03349999999999992 L -1.4270118408203125 0.03349999999999992 L -1.4270118408203125 0.3264999999999999 L -1.3415118408203124 0.3264999999999999 Q -1.2975118408203123 0.3264999999999999 -1.2675118408203123 0.30699999999999994 Q -1.2375118408203125 0.2874999999999999 -1.2220118408203124 0.2542499999999999 Q -1.2065118408203124 0.22099999999999992 -1.2065118408203124 0.17949999999999994 M -0.8652484130859374 0.3264999999999999 L -0.8652484130859374 0.35749999999999993 L -1.1037484130859374 0.35749999999999993 L -1.1037484130859374 0.0024999999999999467 L -0.8697484130859374 0.0024999999999999467 L -0.8697484130859374 0.03349999999999992 L -1.0687484130859375 0.03349999999999992 L -1.0687484130859375 0.16149999999999992 L -0.8952484130859374 0.16149999999999992 L -0.8952484130859374 0.19099999999999992 L -1.0687484130859375 0.19099999999999992 L -1.0687484130859375 0.3264999999999999 L -0.8652484130859374 0.3264999999999999 M -0.7984940185546874 0.35749999999999993 L -0.7984940185546874 0.0024999999999999467 L -0.6514940185546874 0.0024999999999999467 Q -0.6284940185546873 0.0024999999999999467 -0.6092440185546873 0.0119999999999999 Q -0.5899940185546874 0.021499999999999908 -0.5759940185546873 0.037749999999999895 Q -0.5619940185546873 0.05399999999999994 -0.5539940185546874 0.07374999999999993 Q -0.5459940185546874 0.09349999999999992 -0.5459940185546874 0.11399999999999993 Q -0.5459940185546874 0.14299999999999993 -0.5587440185546874 0.16874999999999993 Q -0.5714940185546873 0.19449999999999992 -0.5944940185546874 0.21049999999999994 Q -0.6174940185546873 0.22649999999999992 -0.6484940185546874 0.22649999999999992 L -0.7634940185546873 0.22649999999999992 L -0.7634940185546873 0.35749999999999993 L -0.7984940185546874 0.35749999999999993 M -0.7634940185546873 0.19549999999999992 L -0.6499940185546873 0.19549999999999992 Q -0.6289940185546874 0.19549999999999992 -0.6134940185546873 0.1839999999999999 Q -0.5979940185546874 0.17249999999999993 -0.5894940185546873 0.15399999999999991 Q -0.5809940185546874 0.13549999999999993 -0.5809940185546874 0.11399999999999993 Q -0.5809940185546874 0.09199999999999992 -0.5909940185546874 0.0734999999999999 Q -0.6009940185546874 0.05499999999999994 -0.6172440185546874 0.0442499999999999 Q -0.6334940185546873 0.03349999999999992 -0.6529940185546874 0.03349999999999992 L -0.7634940185546873 0.03349999999999992 L -0.7634940185546873 0.19549999999999992 M -0.34223937988281233 0.35999999999999993 Q -0.3842393798828123 0.35999999999999993 -0.41323937988281234 0.3449999999999999 Q -0.44223937988281237 0.3299999999999999 -0.4592393798828123 0.3047499999999999 Q -0.47623937988281234 0.2794999999999999 -0.4839893798828123 0.24749999999999994 Q -0.49173937988281236 0.2154999999999999 -0.49173937988281236 0.18149999999999994 L -0.49173937988281236 0.0024999999999999467 L -0.4572393798828123 0.0024999999999999467 L -0.4572393798828123 0.18149999999999994 Q -0.4572393798828123 0.20899999999999994 -0.45148937988281235 0.23549999999999993 Q -0.4457393798828123 0.2619999999999999 -0.4327393798828123 0.2829999999999999 Q -0.41973937988281235 0.30399999999999994 -0.3977393798828123 0.3162499999999999 Q -0.37573937988281236 0.3284999999999999 -0.34273937988281233 0.3284999999999999 Q -0.3087393798828123 0.3284999999999999 -0.2864893798828123 0.3157499999999999 Q -0.2642393798828123 0.30299999999999994 -0.25148937988281234 0.2819999999999999 Q -0.23873937988281235 0.2609999999999999 -0.23323937988281235 0.23474999999999993 Q -0.22773937988281234 0.20849999999999994 -0.22773937988281234 0.18149999999999994 L -0.22773937988281234 0.0024999999999999467 L -0.1927393798828123 0.0024999999999999467 L -0.1927393798828123 0.18149999999999994 Q -0.1927393798828123 0.21699999999999992 -0.20073937988281232 0.24949999999999994 Q -0.20873937988281233 0.2819999999999999 -0.22648937988281231 0.30649999999999994 Q -0.2442393798828123 0.3309999999999999 -0.2727393798828123 0.3454999999999999 Q -0.30123937988281235 0.35999999999999993 -0.34223937988281233 0.35999999999999993 M -0.10848693847656236 0.35749999999999993 L -0.10848693847656236 0.0024999999999999467 L -0.07348693847656236 0.0024999999999999467 L -0.07348693847656236 0.35749999999999993 L -0.10848693847656236 0.35749999999999993 M 0.22375598144531264 0.06899999999999995 Q 0.21625598144531263 0.06049999999999994 0.20625598144531265 0.05374999999999991 Q 0.19625598144531264 0.04699999999999993 0.18375598144531263 0.041999999999999926 Q 0.17125598144531265 0.03699999999999992 0.15700598144531264 0.03399999999999992 Q 0.14275598144531265 0.030999999999999917 0.12675598144531264 0.030999999999999917 Q 0.08025598144531264 0.030999999999999917 0.058505981445312646 0.048749999999999905 Q 0.03675598144531264 0.06649999999999995 0.03675598144531264 0.09699999999999992 Q 0.03675598144531264 0.11799999999999991 0.047005981445312636 0.12999999999999992 Q 0.057255981445312645 0.14199999999999993 0.07925598144531264 0.1494999999999999 Q 0.10125598144531264 0.15699999999999992 0.13525598144531265 0.16499999999999992 Q 0.17325598144531265 0.17299999999999993 0.20075598144531265 0.1839999999999999 Q 0.22825598144531264 0.19499999999999992 0.24325598144531266 0.2137499999999999 Q 0.2582559814453127 0.23249999999999993 0.2582559814453127 0.26449999999999996 Q 0.2582559814453127 0.2889999999999999 0.24875598144531266 0.30699999999999994 Q 0.23925598144531265 0.32499999999999996 0.22225598144531264 0.3369999999999999 Q 0.20525598144531265 0.3489999999999999 0.18175598144531263 0.35474999999999995 Q 0.15825598144531264 0.36049999999999993 0.13025598144531264 0.36049999999999993 Q 0.10275598144531264 0.36049999999999993 0.07750598144531264 0.35474999999999995 Q 0.05225598144531264 0.3489999999999999 0.02975598144531264 0.33774999999999994 Q 0.0072559814453126426 0.3264999999999999 -0.012244018554687361 0.30899999999999994 L 0.005255981445312641 0.2804999999999999 Q 0.014755981445312642 0.2904999999999999 0.02800598144531264 0.2992499999999999 Q 0.041255981445312645 0.30799999999999994 0.057505981445312646 0.31499999999999995 Q 0.07375598144531265 0.32199999999999995 0.09250598144531264 0.32574999999999993 Q 0.11125598144531265 0.3294999999999999 0.13125598144531264 0.3294999999999999 Q 0.17375598144531265 0.3294999999999999 0.19750598144531264 0.31399999999999995 Q 0.22125598144531264 0.29849999999999993 0.22125598144531264 0.2679999999999999 Q 0.22125598144531264 0.24599999999999994 0.20925598144531266 0.23274999999999993 Q 0.19725598144531264 0.21949999999999992 0.17325598144531265 0.21099999999999994 Q 0.14925598144531263 0.20249999999999993 0.11425598144531265 0.19449999999999992 Q 0.07725598144531264 0.18599999999999992 0.05175598144531264 0.17549999999999993 Q 0.02625598144531264 0.16499999999999992 0.013505981445312641 0.14774999999999994 Q 0.0007559814453126402 0.13049999999999992 0.0007559814453126402 0.10199999999999992 Q 0.0007559814453126402 0.06899999999999995 0.017005981445312637 0.0462499999999999 Q 0.03325598144531264 0.02349999999999991 0.061755981445312635 0.011749999999999927 Q 0.09025598144531265 -5.551115123125783e-17 0.12725598144531264 -5.551115123125783e-17 Q 0.15075598144531263 -5.551115123125783e-17 0.17100598144531265 0.004749999999999921 Q 0.19125598144531264 0.009499999999999897 0.20850598144531265 0.018499999999999905 Q 0.22575598144531264 0.027499999999999913 0.24075598144531266 0.040999999999999925 L 0.22375598144531264 0.06899999999999995 M 0.4262557373046877 0.35749999999999993 Q 0.4262557373046877 0.3404999999999999 0.4292557373046877 0.3232499999999999 Q 0.4322557373046877 0.30599999999999994 0.44075573730468764 0.2889999999999999 Q 0.44925573730468765 0.2719999999999999 0.46575573730468767 0.2562499999999999 Q 0.4822557373046877 0.24049999999999994 0.5092557373046877 0.22649999999999992 Q 0.5237557373046877 0.21899999999999992 0.5392557373046877 0.21174999999999994 Q 0.5547557373046876 0.20449999999999993 0.5685057373046877 0.19574999999999992 Q 0.5822557373046877 0.18699999999999992 0.5905057373046877 0.17574999999999993 Q 0.5987557373046877 0.16449999999999992 0.5987557373046877 0.14899999999999994 Q 0.5987557373046877 0.13649999999999993 0.5915057373046877 0.12449999999999992 Q 0.5842557373046877 0.11249999999999993 0.5695057373046877 0.10499999999999993 Q 0.5547557373046876 0.09749999999999992 0.5327557373046876 0.09749999999999992 Q 0.5167557373046877 0.09749999999999992 0.5037557373046877 0.10199999999999992 Q 0.4907557373046877 0.10649999999999993 0.4807557373046877 0.11324999999999993 Q 0.47075573730468767 0.11999999999999991 0.46375573730468767 0.12674999999999992 Q 0.45675573730468766 0.13349999999999992 0.45225573730468765 0.13799999999999993 L 0.4307557373046877 0.11449999999999994 Q 0.4332557373046877 0.11149999999999993 0.4420057373046877 0.1037499999999999 Q 0.45075573730468765 0.09599999999999992 0.4645057373046877 0.08749999999999991 Q 0.4782557373046877 0.0789999999999999 0.49700573730468767 0.0729999999999999 Q 0.5157557373046877 0.06699999999999995 0.5382557373046877 0.06699999999999995 Q 0.5687557373046876 0.06699999999999995 0.5905057373046877 0.07774999999999993 Q 0.6122557373046877 0.08849999999999991 0.6237557373046877 0.10649999999999993 Q 0.6352557373046877 0.12449999999999992 0.6352557373046877 0.14549999999999993 Q 0.6352557373046877 0.16599999999999993 0.6265057373046876 0.18074999999999994 Q 0.6177557373046877 0.19549999999999992 0.6040057373046877 0.20624999999999993 Q 0.5902557373046877 0.21699999999999992 0.5755057373046877 0.22474999999999992 Q 0.5607557373046876 0.23249999999999993 0.5487557373046876 0.23799999999999993 Q 0.5252557373046877 0.24899999999999994 0.5092557373046877 0.2599999999999999 Q 0.49325573730468764 0.2709999999999999 0.4837557373046877 0.28224999999999995 Q 0.4742557373046877 0.2934999999999999 0.46900573730468764 0.3042499999999999 Q 0.46375573730468767 0.31499999999999995 0.46175573730468766 0.3264999999999999 L 0.6407557373046877 0.3264999999999999 L 0.6407557373046877 0.35749999999999993 L 0.4262557373046877 0.35749999999999993 M 0.9440037841796876 0.21099999999999994 Q 0.9440037841796876 0.2549999999999999 0.9277537841796876 0.2892499999999999 Q 0.9115037841796876 0.3234999999999999 0.8830037841796876 0.3429999999999999 Q 0.8545037841796876 0.36249999999999993 0.8185037841796876 0.36249999999999993 Q 0.7825037841796876 0.36249999999999993 0.7542537841796876 0.3429999999999999 Q 0.7260037841796876 0.3234999999999999 0.7095037841796876 0.2892499999999999 Q 0.6930037841796876 0.2549999999999999 0.6930037841796876 0.21099999999999994 Q 0.6930037841796876 0.16699999999999993 0.7095037841796876 0.13274999999999992 Q 0.7260037841796876 0.09849999999999992 0.7542537841796876 0.07874999999999993 Q 0.7825037841796876 0.05899999999999994 0.8185037841796876 0.05899999999999994 Q 0.8545037841796876 0.05899999999999994 0.8830037841796876 0.07874999999999993 Q 0.9115037841796876 0.09849999999999992 0.9277537841796876 0.13274999999999992 Q 0.9440037841796876 0.16699999999999993 0.9440037841796876 0.21099999999999994 M 0.9095037841796876 0.21099999999999994 Q 0.9095037841796876 0.17549999999999993 0.8980037841796876 0.14849999999999994 Q 0.8865037841796876 0.12149999999999991 0.8660037841796876 0.1062499999999999 Q 0.8455037841796875 0.09099999999999991 0.8185037841796876 0.09099999999999991 Q 0.7915037841796876 0.09099999999999991 0.7710037841796876 0.1062499999999999 Q 0.7505037841796875 0.12149999999999991 0.7387537841796876 0.14849999999999994 Q 0.7270037841796876 0.17549999999999993 0.7270037841796876 0.21099999999999994 Q 0.7270037841796876 0.24649999999999994 0.7387537841796876 0.2734999999999999 Q 0.7505037841796875 0.30049999999999993 0.7710037841796876 0.31549999999999995 Q 0.7915037841796876 0.3304999999999999 0.8185037841796876 0.3304999999999999 Q 0.8455037841796875 0.3304999999999999 0.8660037841796876 0.3152499999999999 Q 0.8865037841796876 0.29999999999999993 0.8980037841796876 0.27324999999999994 Q 0.9095037841796876 0.24649999999999994 0.9095037841796876 0.21099999999999994 M 0.9942535400390626 0.35749999999999993 Q 0.9942535400390626 0.3404999999999999 0.9972535400390626 0.3232499999999999 Q 1.0002535400390626 0.30599999999999994 1.0087535400390626 0.2889999999999999 Q 1.0172535400390625 0.2719999999999999 1.0337535400390627 0.2562499999999999 Q 1.0502535400390627 0.24049999999999994 1.0772535400390626 0.22649999999999992 Q 1.0917535400390626 0.21899999999999992 1.1072535400390626 0.21174999999999994 Q 1.1227535400390627 0.20449999999999993 1.1365035400390626 0.19574999999999992 Q 1.1502535400390625 0.18699999999999992 1.1585035400390626 0.17574999999999993 Q 1.1667535400390627 0.16449999999999992 1.1667535400390627 0.14899999999999994 Q 1.1667535400390627 0.13649999999999993 1.1595035400390625 0.12449999999999992 Q 1.1522535400390626 0.11249999999999993 1.1375035400390625 0.10499999999999993 Q 1.1227535400390627 0.09749999999999992 1.1007535400390627 0.09749999999999992 Q 1.0847535400390627 0.09749999999999992 1.0717535400390625 0.10199999999999992 Q 1.0587535400390626 0.10649999999999993 1.0487535400390626 0.11324999999999993 Q 1.0387535400390626 0.11999999999999991 1.0317535400390627 0.12674999999999992 Q 1.0247535400390626 0.13349999999999992 1.0202535400390627 0.13799999999999993 L 0.9987535400390626 0.11449999999999994 Q 1.0012535400390625 0.11149999999999993 1.0100035400390626 0.1037499999999999 Q 1.0187535400390626 0.09599999999999992 1.0325035400390625 0.08749999999999991 Q 1.0462535400390627 0.0789999999999999 1.0650035400390627 0.0729999999999999 Q 1.0837535400390625 0.06699999999999995 1.1062535400390625 0.06699999999999995 Q 1.1367535400390627 0.06699999999999995 1.1585035400390626 0.07774999999999993 Q 1.1802535400390626 0.08849999999999991 1.1917535400390626 0.10649999999999993 Q 1.2032535400390627 0.12449999999999992 1.2032535400390627 0.14549999999999993 Q 1.2032535400390627 0.16599999999999993 1.1945035400390627 0.18074999999999994 Q 1.1857535400390626 0.19549999999999992 1.1720035400390627 0.20624999999999993 Q 1.1582535400390626 0.21699999999999992 1.1435035400390627 0.22474999999999992 Q 1.1287535400390627 0.23249999999999993 1.1167535400390627 0.23799999999999993 Q 1.0932535400390626 0.24899999999999994 1.0772535400390626 0.2599999999999999 Q 1.0612535400390626 0.2709999999999999 1.0517535400390625 0.28224999999999995 Q 1.0422535400390627 0.2934999999999999 1.0370035400390627 0.3042499999999999 Q 1.0317535400390627 0.31499999999999995 1.0297535400390627 0.3264999999999999 L 1.2087535400390625 0.3264999999999999 L 1.2087535400390625 0.35749999999999993 L 0.9942535400390626 0.35749999999999993 M 1.4115015869140626 0.42099999999999993 L 1.4115015869140626 0.3319999999999999 L 1.2450015869140627 0.3319999999999999 L 1.2450015869140627 0.30199999999999994 L 1.4225015869140627 0.0719999999999999 L 1.4455015869140626 0.0719999999999999 L 1.4455015869140626 0.30099999999999993 L 1.4895015869140626 0.30099999999999993 L 1.4895015869140626 0.3319999999999999 L 1.4455015869140626 0.3319999999999999 L 1.4455015869140626 0.42099999999999993 L 1.4115015869140626 0.42099999999999993 M 1.2810015869140627 0.30099999999999993 L 1.4150015869140626 0.30099999999999993 L 1.4150015869140626 0.12549999999999992 L 1.2810015869140627 0.30099999999999993" fill="#ffffff" fill-rule="nonzero"></path></g><g transform="matrix(1,0,0,1,0,0)"><g transform="matrix(1,0,0,1,0,0)" clip-path="url(#SvgjsClipPath127928)"><g clip-path="url(#SvgjsClipPath1279237b022e3f-2f30-4706-914f-c96d545509e4)"><path d=" M -0.28420694360993526 -2.345392717085536 L -0.28034129798361007 -2.3460575096454774 L -0.28420694360993526 -2.346697680258755 L -0.28420694360993526 -2.345392717085536 Z" fill="#bab9b4" transform="matrix(1,0,0,1,0,0)" fill-rule="nonzero"></path></g><g clip-path="url(#SvgjsClipPath1279237b022e3f-2f30-4706-914f-c96d545509e4)"><path d=" M -0.04335506133784328 -3.491852108651095 C -0.10391273915916943 -2.9592670913247305 0.6367769713755078 -2.5678273832525864 0.9209142358837823 -2.438118968224025 L 0.9698995987727954 -2.5317931643090974 L 0.7416787751395888 -2.7823337825936685 C 0.7416787751395888 -2.7823337825936685 0.5997086306721102 -2.7874305255532184 0.40663563590247076 -2.819475989137059 C 0.3694318744924183 -2.926039774300995 0.3358229172953824 -3.0646982669420995 0.33789116081519976 -3.177552959478813 C 0.34860170761425513 -3.762767387800536 1.0261730578745 -3.9592012782898784 1.0261730578745 -3.9592012782898784 C 0.702554501889707 -4.00850672648553 0.021696121749752884 -4.063967661347306 -0.04336737231117627 -3.4918397976777626 Z" fill="#bab9b4" transform="matrix(1,0,0,1,0,0)" fill-rule="nonzero"></path></g><g clip-path="url(#SvgjsClipPath1279237b022e3f-2f30-4706-914f-c96d545509e4)"><path d=" M 1.0293492889942202 -2.391558867081465 C 1.0293492889942202 -2.391558867081465 0.9877135771845584 -2.407624687280048 0.9209265468571146 -2.4381189682240256 C 0.6367769713755078 -2.5678396942259187 -0.10391273915916943 -2.9592670913247314 -0.04334275036451096 -3.4918521086510954 C 0.021708432723085203 -4.063967661347307 0.7025668128630393 -4.008506726485531 1.0261976798211647 -3.9592135892632117 L 1.1017378121878372 -4.251168321837463 L 0.5196503710925051 -4.28329996223463 L 0.41792479844814356 -4.397274953344578 L 0.10707272180889094 -4.404575360530601 C 0.10681419136891379 -4.534726970599123 -0.015089066567001819 -4.6303832333906865 -0.1415720065825139 -4.599679665900061 L -0.18745500419180006 -4.58855054600771 L -1.0446803882895337 -3.259888749124886 L -1.1626072018391336 -0.7602687237453303 C -1.1682333166519705 -0.6410985018891733 -1.1341196095483128 -0.5234302187795512 -1.065633664901019 -0.42574264538816564 L -1.065633664901019 -0.42574264538816564 C -0.9657670492298265 -0.2832923729607284 -0.8032375792974936 -0.19787883998159472 -0.6292712151395023 -0.196389212208393 L 0.4153148721017075 -0.1875006894625102 C 0.15125680509832828 -0.18697131760922314 0.15065356740504865 -0.49145862103570437 0.15065356740504865 -0.49145862103570437 L 0.1491023847651849 -1.2575089366348124 C 0.14889309821853725 -1.361573594212301 0.07949614154465756 -1.4528102175775883 -0.020739803326502715 -1.4807930599617873 L -0.47724300545957643 -1.6082485668705466 L 0.07583978246497924 -1.6093688654437814 C 0.21575399438597365 -1.6096520178304234 0.32940890018928326 -1.496452618040406 0.32969205257592527 -1.3565384061194128 L 0.33098470477581166 -0.7154444698426183 L 0.7579046379914938 -1.3443259205738238 L 0.5950550827525225 -1.9621274953060053 L -0.5427250726138019 -2.2266287573493453 L -0.7679789516739363 -3.0421199418507587 L -0.4240719116375995 -2.369596090656737 L -0.28419463263660205 -2.3466976802587562 L -0.2803289870102761 -2.3460698206188115 L 0.8823439564338533 -2.155754483875596 L 0.8396248789709537 -2.105710377280009 L 1.0065001224895698 -1.9323841837352949 L 1.1632065020357494 -2.08018972956226 L 1.0293615999675534 -2.391546556108134 Z" fill="#dce2e3" transform="matrix(1,0,0,1,0,0)" fill-rule="nonzero"></path></g><g clip-path="url(#SvgjsClipPath1279237b022e3f-2f30-4706-914f-c96d545509e4)"><path d=" M 0.6284547534029092 -0.6470447020086492 L 0.6280238693362798 -0.8587565104033112 L 0.34681661648108064 -0.46942197877098035 C 0.34721056762771196 -0.27599196577470586 0.5827071765002767 -0.18782077476914782 0.6493095422277364 -0.18795619547580422 L 0.9195969617372326 -0.1884978783024227 C 0.9195969617372326 -0.1884978783024227 0.6290949240161863 -0.3282643585434295 0.6284547534029092 -0.6470323910353168 Z" fill="#bab9b4" transform="matrix(1,0,0,1,0,0)" fill-rule="nonzero"></path></g></g></g></g><defs><clipPath id="SvgjsClipPath127928"><path d=" M -1.1632065020357494 -4.60545177845134 h 2.3264130040714988 v 4.41795177845134 h -2.3264130040714988 Z"></path></clipPath><clipPath id="SvgjsClipPath1279237b022e3f-2f30-4706-914f-c96d545509e4"><path d=" M -1.1632065020357492 -4.60545177845134 L 1.1632065020357494 -4.60545177845134 L 1.1632065020357494 -0.1875 L -1.163206502035749 -0.1875 Z"></path></clipPath></defs></svg>